<?xml version="1.0" encoding="UTF-8"?>
<svg id="_Слой_2" data-name="Слой 2" xmlns="http://www.w3.org/2000/svg" viewBox="0 0 76.11 47.21">
  <defs>
    <style>
      .cls-1 {
        fill: #231f1c;
      }

      .cls-1, .cls-2, .cls-3, .cls-4, .cls-5, .cls-6, .cls-7, .cls-8, .cls-9, .cls-10, .cls-11, .cls-12, .cls-13, .cls-14, .cls-15, .cls-16 {
        stroke-width: 0px;
      }

      .cls-2 {
        fill: #655d54;
      }

      .cls-3 {
        fill: #3c352f;
      }

      .cls-4 {
        fill: #56514e;
      }

      .cls-5 {
        fill: #b2ada8;
      }

      .cls-6 {
        fill: #cecfcd;
      }

      .cls-7 {
        fill: #cbcccd;
      }

      .cls-8 {
        fill: #f5f4f4;
      }

      .cls-9 {
        fill: #13110e;
      }

      .cls-10 {
        fill: #0c0909;
      }

      .cls-11 {
        fill: #0e0b09;
      }

      .cls-12 {
        fill: #0b0b0b;
      }

      .cls-13 {
        fill: #827c77;
      }

      .cls-14 {
        fill: #fcfcfc;
      }

      .cls-15 {
        fill: #080909;
      }

      .cls-16 {
        fill: #5f5a55;
      }
    </style>
  </defs>
  <g id="_Слой_1-2" data-name="Слой 1">
    <g>
      <path class="cls-14" d="m68.19,26.96c-.45,4.24-3.18,7.43-5.06,11-3.35,2.76-7.45,3.14-11.52,3.63-1.18-1.78-5.25-1.39-3.86-5.12,1.68-1.01,3.76-1.27,5.05-3.05,3.05-4.2,1.85-7.94-3.72-11.17-.13-.32-.26-.78-.07-.92,5.15-3.76,10.03-7.92,16.06-10.3.33.24.67.47,1,.71,2.91,4.76,3.09,9.91,2.12,15.21Z"/>
      <path class="cls-14" d="m26.18,37.08c3.21,1.29.87,2.54-.03,3.8-2.82,1.19-5.64-.24-8.46,0-3.59-2.98-6.57-6.37-7.42-11.18-.37-1.89-.74-3.78-1.12-5.67-1.19-4.75.38-8.74,3.37-12.34,5.78,1.25,9.54,5.8,14.19,8.87,1.52,1-.06,2.25-.92,3.17-3.08,2.73-2.7,6.02-1.5,9.42.48,1.37,1.79,2.35,1.88,3.92Z"/>
      <path class="cls-11" d="m25.06,23.04c.76-.8,3.58-1.25.29-2.65-4.6-1.97-8.46-5.09-12.13-8.44-.47-.22-1.06-.27-1.27-.87-.26-.59-.44-1.22-.78-1.76q-3.76-6.08-9.04-1.52c-.3.26-.89.18-2.13.4,1.42-2.19,2.34-4.04,3.65-5.54,2.42-2.78,5.63-3.12,7.6-.04,5.99,9.34,15.46,14.39,24.05,20.55.53.38,1.02.82,1.61,1.31-2.46,1.86-4.27-3.05-6.62-.42-1.99.96-3.72.52-5.24-1.01Z"/>
      <path class="cls-10" d="m65.08,11.04c-4.65,4.61-10.48,7.5-15.91,10.99-.26,2.45-1.79,1.24-2.97,1.03-1.32.37-2.64.74-3.96,1.11-1.04.43-1.2-.06-.99-.94,8.94-5.96,18.52-11.12,24.56-20.57,1.19-1.85,3.15-3.4,5.51-2.28,2.94,1.4,5.11,3.62,4.75,7.83-1.09-1.28-1.85-2.25-2.69-3.15-2.01-2.18-4-2.61-5.08.69-.68,2.08-3.3,2.85-3.23,5.29Z"/>
      <path class="cls-12" d="m25.06,23.04c1.82-.07,3.59.16,5.24,1.01.59.61,2.56.88.64,2.14-1.36.89-.69,2.13.03,2.22,4.86.58,2.62,3.62,2.1,5.9-.94,4.08-4.37,2.37-6.89,2.78-5.49-5.02-5.9-10.19-1.12-14.05Z"/>
      <path class="cls-15" d="m46.2,23.06c.99-.34,1.98-.68,2.97-1.03,4.83-.52,6.5,2.47,6.72,6.49.25,4.64-2.74,7.68-7.62,8.32-.94-.42-2.27.34-2.94-.95-.87-2.94-2.96-5.85-.22-8.88.23.19.46.38.68.57-.28-.12-.52-.32-.79-.45.4-1.36.8-2.71,1.2-4.07Z"/>
      <path class="cls-1" d="m51.15,41c3.99-1.01,7.99-2.02,11.98-3.03,1.55,1.58,4.23.63,6.26,3.33-6.87-1.57-12.67-.08-18.23,2.7-.36.18-1.8.77-1.52-.75.08-.44.93-.75,1.43-1.12-.27-.27-.35-.53-.23-.78.11-.24.22-.35.32-.35Z"/>
      <path class="cls-9" d="m17.23,39.91c2.99.18,6.02,0,8.92.97.82.15,1.63.32,1.99,1.22.19.95-.02,1.48-1.13,1.06-4.94-1.32-9.98-1.26-15.24-1.5,1.14-.52,2.28-1.03,3.42-1.55.62-.67,1.31-.57,2.03-.19Z"/>
      <path class="cls-5" d="m17.23,39.91c-.68.06-1.36.13-2.03.19-1.88-3.35-6.41-5.44-4.92-10.39,2.17,3.5,3.94,7.27,6.96,10.2Z"/>
      <path class="cls-16" d="m11.95,11.07c.42.29.85.58,1.27.87-3.43,3.33-3.62,7.76-4.06,12.1-2.18-4.99-.29-9.11,2.78-12.97Z"/>
      <path class="cls-4" d="m68.19,26.96c.62-5.26-.98-10.2-2.12-15.21,3.97,4.61,3.89,9.8,2.12,15.21Z"/>
      <path class="cls-13" d="m51.15,41c-.03.38-.06.75-.09,1.13-2.69-1.36-5.08-2.99-5.73-6.23,1.02.19,2.22-.17,2.94.95-.83,2.63,2.9,2.09,2.88,4.15Z"/>
      <path class="cls-2" d="m41.25,23.23c.33.31.66.63.99.94-.85.69-1.71,1.37-2.85,2.3-.29-2.1-.14-4.01-1.37-5.77,2.26-.21,1.96,2.08,3.23,2.52Z"/>
      <path class="cls-3" d="m27.03,43.15c.38-.35.75-.71,1.13-1.06,1.84,1.01,3.7,1.99,5.48,5.11-2.89-1.77-4.74-2.91-6.6-4.05Z"/>
      <path class="cls-6" d="m65.38,19.01c.81,3.78,1.51,7.56-1.18,11.07.39-3.69.79-7.38,1.18-11.07Z"/>
      <path class="cls-7" d="m13.12,17.63v11.29c-1.64-3.59-2.59-7.18,0-11.29Z"/>
      <path class="cls-8" d="m45,27.13c1.05-.34,2.24-2.18,3.05.14.42,1.18.07,2.58-1.29,2.76-2.71.36-1.36-1.85-1.65-3.02,0,0-.11.12-.11.12Z"/>
    </g>
  </g>
</svg>