<?xml version="1.0" encoding="UTF-8"?>
<svg id="_Слой_2" data-name="Слой 2" xmlns="http://www.w3.org/2000/svg" viewBox="0 0 62.58 40.58">
  <defs>
    <style>
      .cls-1 {
        fill: #25201c;
      }

      .cls-1, .cls-2, .cls-3, .cls-4, .cls-5, .cls-6, .cls-7, .cls-8, .cls-9, .cls-10 {
        stroke-width: 0px;
      }

      .cls-2 {
        fill: #726760;
      }

      .cls-3 {
        fill: #f3ede7;
      }

      .cls-4 {
        fill: #62564d;
      }

      .cls-5 {
        fill: #1f1a17;
      }

      .cls-6 {
        fill: #f2ede5;
      }

      .cls-7 {
        fill: #1c1713;
      }

      .cls-8 {
        fill: #5d5149;
      }

      .cls-9 {
        fill: #efe9e1;
      }

      .cls-10 {
        fill: #26221e;
      }
    </style>
  </defs>
  <g id="_Слой_1-2" data-name="Слой 1">
    <g>
      <path class="cls-6" d="m53.74,12.28c.98,1.08,1.96,2.17,2.95,3.25.79.87.86,1.82.29,2.83-2,1.07-3.03-.59-4.29-1.55-5.62-4.29-11.34-2.56-13.52,4.21-.71,2.2-1.25,4.47-1.2,6.85.03,1.79.3,3.7-1.1,5.23-2.36-5.08-1.53-10.19.17-15.18,1.24-3.64,3.66-6.23,7.87-6.45,1.32-.07,2.86,0,3.24-1.62.36-1.48-1.5-1.54-2.05-2.48-.55-.93-2.65-1.25-1.24-2.99,5.37-.09,6.96,4.07,8.86,7.89Z"/>
      <path class="cls-3" d="m10.08,13.7c-.96-.41-1.3-1.2-1.37-2.17.96-4.12,3.04-7.04,7.7-7.19,1.54,1.76-.37,2.28-1.23,2.82-1.54.98-2.87,2.04-4.2,4.15,6.04-.07,11.35.3,13.89,6.47,2.24,5.42,2.47,10.82.79,16.37-.03.12-.18.2-.27.3l-.73-1.03c-.9-3.17-.44-6.46-.95-9.68-1.18-7.48-4.85-10.42-12.28-9.54-.49.06-.94-.22-1.36-.49Z"/>
      <path class="cls-1" d="m36.87,33.11c-.1-3.28-.55-6.53.26-9.83,1.15-4.68,2.74-9.02,8.03-10.2,5.32-1.19,8.63,2.04,11.47,5.93.6,1.42.14,1.89-1.31,1.45-2.88-2.65-5.65-5.98-10.15-4.12-4.65,1.93-4.84,6.65-5.8,10.74-.64,2.73.81,5.78-1.24,8.31-.02-.98-.11-1.92-1.25-2.28Z"/>
      <path class="cls-7" d="m10.08,13.7c8.11-2.46,13.96,1.57,14.59,10.24.23,3.14,0,6.31,0,9.47-2.14-2.13-.89-4.94-1.4-7.4-2.57-12.39-7.5-14.44-17.9-6.52.73-3.12,3.12-4.16,4.71-5.8Z"/>
      <path class="cls-9" d="m38.12,35.39c.2-3.31.12-6.67.67-9.93.72-4.29,1.81-8.81,6.69-10.2,4.66-1.32,7.78,1.61,10.39,5.06.62.54,1.18,1.11,1,2.04-2.16.27-2.57-1.77-3.67-2.85-4.76-4.64-9.27-3.57-11.62,2.63-1.3,3.43-1.39,6.99-1.89,10.52-.17,1.18-.2,2.31-1.58,2.73Z"/>
      <path class="cls-10" d="m53.74,12.28c-2.5-3.14-4.97-6.32-8.86-7.89-2.14-2.16-5.29-2.19-7.95-3.58,7.66-2.63,16.98,3.84,16.81,11.47Z"/>
      <path class="cls-5" d="m16.41,4.34c-3.26,1.66-5.91,3.96-7.7,7.19-.77,0-1.29-.3-1.1-1.16C9.06,3.77,17.28-1.21,24.79.26c-2.68,2.05-6.22,1.75-8.39,4.08Z"/>
      <path class="cls-2" d="m56.88,22.36c-.33-.68-.67-1.36-1-2.04.25-.44.51-.88.76-1.32.02-1.16.04-2.31.05-3.47,5.01-2.52,3.39,3.48,5.9,4.4-2.65-.57-4.45.3-5.7,2.43Z"/>
      <path class="cls-8" d="m4.69,17.12c-.48.99.06,3.37-2.64,2.54-.71-.22-2.48.62-1.97-.96.5-1.56,1.67-3.18,3.01-4.1.72-.5,2.05.7,1.59,2.52Z"/>
      <path class="cls-4" d="m39.77,40.58c3.03-3.25,5.95-2.82,9.94-1.06-3.87-.84-6.47.76-9.94,1.06Z"/>
    </g>
  </g>
</svg>