<?xml version="1.0" encoding="UTF-8"?>
<svg id="_Слой_2" data-name="Слой 2" xmlns="http://www.w3.org/2000/svg" viewBox="0 0 73.77 47.2">
  <defs>
    <style>
      .cls-1 {
        fill: #e8eced;
      }

      .cls-1, .cls-2, .cls-3, .cls-4, .cls-5, .cls-6, .cls-7, .cls-8, .cls-9, .cls-10, .cls-11, .cls-12, .cls-13, .cls-14, .cls-15, .cls-16, .cls-17, .cls-18, .cls-19, .cls-20, .cls-21, .cls-22, .cls-23 {
        stroke-width: 0px;
      }

      .cls-2 {
        fill: #fcfcfb;
      }

      .cls-3 {
        fill: #ede8e2;
      }

      .cls-4 {
        fill: #100d0c;
      }

      .cls-5 {
        fill: #040404;
      }

      .cls-6 {
        fill: #eee9e1;
      }

      .cls-7 {
        fill: #85817b;
      }

      .cls-8 {
        fill: #615e59;
      }

      .cls-9 {
        fill: #d3d4d3;
      }

      .cls-10 {
        fill: #dedfe0;
      }

      .cls-11 {
        fill: #1c1815;
      }

      .cls-12 {
        fill: #a19f9c;
      }

      .cls-13 {
        fill: #060605;
      }

      .cls-14 {
        fill: #b2ada9;
      }

      .cls-15 {
        fill: #d1d1d1;
      }

      .cls-16 {
        fill: #0f0d0b;
      }

      .cls-17 {
        fill: #99918a;
      }

      .cls-18 {
        fill: #746d68;
      }

      .cls-19 {
        fill: #9f9690;
      }

      .cls-20 {
        fill: #5e5c57;
      }

      .cls-21 {
        fill: #fcfcfc;
      }

      .cls-22 {
        fill: #26221e;
      }

      .cls-23 {
        fill: #706965;
      }
    </style>
  </defs>
  <g id="_Слой_1-2" data-name="Слой 1">
    <g>
      <path class="cls-21" d="m44.99,20.28c-3.39-1.31.31-2.59.02-3.89,1.17-4.33,5.31-5.88,8.12-8.69.99-.42,1.99-.39,2.99-.06,6.43,2.87,10.5,7.56,11.3,14.76,1.84,5.11-.88,9.4-2.49,13.88l.02-.06c-1.93,2.71-3.17,6.1-6.97,6.95-2.69-.23-5.54.93-8.02-.98-1.59-1.25-3.17-2.51-3-4.85,8.3-1.55,10.5-3.83,9.95-10.32-.5-5.97-4.35-8.56-10.03-6.74-.64.21-1.26.34-1.89,0Z"/>
      <path class="cls-2" d="m28.99,16.23c.9,1.34,2.11,2.62.88,4.39-.68.1-1.33-.05-1.9-.4-2.93-1.75-5.84-2.5-8.59.3-2.63,2.67-3.22,7.31-1.52,11.16,1.49,3.39,4.05,4.62,7.63,3.95.82-.16,1.65-.1,2.37.42l.09.18c-.28,4.42-4.09,5.65-6.97,7.73-1.25.34-2.43-.3-3.65-.26-3.95-1.18-6.28-4.17-8.31-7.48l.04.06c-1.42-4.5-4.2-8.76-2.5-13.82.67-6.76,4.55-11.3,10.18-14.61.95-.48,1.95-.55,2.98-.3,3.95,1.97,7.91,3.94,9.27,8.68Z"/>
      <path class="cls-13" d="m44.99,20.28c3.09-2.91,6.34-4.13,10.01-.96,3.58,3.09,4.56,10.12,1.95,14.65-2.31,4.01-5.61,5.36-9.98,3.37-4.88-4.19-5.53-9.8-1.97-17.07Z"/>
      <path class="cls-5" d="m27.86,36.05c-5.49,2.28-8.47,1.53-10.9-2.75-2.75-4.86-1.8-11.85,2.19-14.88,4.32-3.28,7.63-.96,10.71,2.2,1.74,5.46,2.37,10.77-2.01,15.44Z"/>
      <path class="cls-6" d="m20.03,8.3c-.98,0-1.96-.02-2.94-.02-5.29,2.68-8.43,7.05-9.91,12.71-.78,3.04-.27,6.23-1.15,9.25-2.25-3.88-2.12-7.84-.19-11.74-1.69-1.49-2.35,2.74-3.98.47-.75-1.23-.07-2.33.58-3.17C7.56,9.16,13.75,3.95,21.97,1.56c.96-.28,1.95-.24,2.88.24-.28,2.71-3.85,6.23,2.2,7.32,1.82.33,2.17,2.7,1.75,4.66-2.89-1.88-5.44-4.3-8.76-5.48Z"/>
      <path class="cls-16" d="m49.12,1.78c-.1-.5-1.6-.94-.59-1.27,9.75-3.19,25.68,9.08,25.24,19.35,0,.13-.51.24-.79.36-7.02-7.36-14.51-14.1-23.86-18.45Z"/>
      <path class="cls-4" d="m24.84,1.81C15.09,4.73,7.22,10.15,1.86,18.96c-1.37,1.33-2.2,1.5-1.73-.85C1.92,9.07,11.53.89,21.06.31c1.32-.08,2.73-.29,3.96.04,1.9.51-.12.95-.18,1.46Z"/>
      <path class="cls-3" d="m49.12,1.78c10.37,3.02,18.39,9.09,23.86,18.45-1.77,1.55-2.11-1.95-3.91-.91-.09,3.91,1.86,8.26-1.4,11.9-.46-3.38,0-6.84-.85-10.18-1.57-5.93-4.65-10.59-10.73-12.72-1.03-.01-2.06-.02-3.09-.03-.51.57-1.07.57-1.69.19-1.47-2.31,2.2-1.28,1.84-2.9-1.27-1.29-3.85-1.28-4.03-3.79Z"/>
      <path class="cls-11" d="m49.96,42.2c2.99-.03,5.97-.07,8.96-.1,1.04-.38,2.07-.68,3.02.22,1.69,1.28,4.27.48,6.64,3.34-9.01-2.65-16.91-1.72-25.56,1.14,2.48-2.66,5.7-2.04,6.94-4.6Z"/>
      <path class="cls-22" d="m17.11,43.04c1.24,0,2.49,0,3.73,0,1.41-.64,2.39.09,3.29,1.06,2.51.26,4.75,1.14,6.66,3.09-7.96-2.94-16.01-3.09-25.24-.28,2.98-3.08,5.99-2.68,8.29-3.9,1.09-.5,2.18-.28,3.27.03Z"/>
      <path class="cls-17" d="m67.09,20.15c1.75,3.61.91,7.35.58,11.07-1.18,1.55-.75,3.97-2.74,5.07.83-4.68,2.7-9.28,1.26-14.16.5-.57,0-1.59.9-1.97Z"/>
      <path class="cls-19" d="m6.03,30.23c.09-3.38-.89-6.85.84-10.09.93.37.42,1.44.95,2-1.44,4.87.42,9.46,1.23,14.14-2.47-1.29-1.37-4.36-3.02-6.05Z"/>
      <path class="cls-23" d="m20.03,8.3c4.18-.18,6.22,3.05,8.76,5.48.06.82.13,1.63.19,2.45-2.51-3.18-6.02-5.23-8.96-7.93Z"/>
      <path class="cls-18" d="m51.31,8.47c.56-.06,1.12-.12,1.69-.19-1.82,3.53-6.05,4.69-7.99,8.11-.15-4.43,3.64-5.72,6.3-7.92Z"/>
      <path class="cls-7" d="m24.13,44.11c-1.1-.35-2.19-.71-3.29-1.06,2.6-2.03,5.96-3.27,7.11-6.81,2.38,1.95-.14,2.96-.86,4.27-.75,1.38-2.93,1.61-2.97,3.6Z"/>
      <path class="cls-12" d="m17.11,43.04c-1.09,0-2.18-.02-3.27-.03-2.31-1.76-4.71-3.46-4.82-6.79,2.62,2.37,4.88,5.15,8.09,6.82Z"/>
      <path class="cls-14" d="m61.93,42.33l-3.02-.22c2.01-1.96,4.02-3.92,6.03-5.88.69,2.87-2.19,3.97-3.01,6.1Z"/>
      <path class="cls-20" d="m67.09,20.15c-.3.66-.6,1.32-.9,1.97-.99-5.39-3.35-9.77-8.68-12.05-.74-.32-1.43-.78-1.41-1.76,7.09.76,9.25,6.11,11,11.84Z"/>
      <path class="cls-15" d="m64.8,24.83c-2.67-4.07-4.52-6.9-6.51-9.93,3.74,1.81,5.06,3.68,6.51,9.93Z"/>
      <path class="cls-8" d="m7.82,22.14c-.32-.67-.64-1.33-.95-2,1.53-5.57,3.88-10.44,10.21-11.87.14,1.16-.48,1.76-1.46,2.24-4.82,2.37-6.92,6.6-7.8,11.63Z"/>
      <path class="cls-9" d="m10.5,22.22c-.05-4.7,2.49-7.66,6.64-9.46-2.22,3.12-4.84,5.97-6.64,9.46Z"/>
      <path class="cls-1" d="m46.92,28.97c-1.25-.13-1.98-.67-2.04-1.85-.07-1.33.37-2.34,1.94-2.18,1.01.1,1.95.43,2.08,1.7.16,1.57-1.03,1.86-1.97,2.32Z"/>
      <path class="cls-10" d="m29.11,25.39c.19,1.48-.53,2.09-1.94,2.05-1.09-.03-1.98-.51-2.11-1.6-.16-1.3.65-2.19,1.9-2.41,1.44-.26,2.06.61,2.15,1.95Z"/>
    </g>
  </g>
</svg>