<?xml version="1.0" encoding="UTF-8"?>
<svg id="_Слой_2" data-name="Слой 2" xmlns="http://www.w3.org/2000/svg" viewBox="0 0 151.36 151.28">
  <defs>
    <style>
      .cls-1 {
        fill: #c24917;
      }

      .cls-1, .cls-2, .cls-3, .cls-4, .cls-5, .cls-6, .cls-7, .cls-8, .cls-9, .cls-10, .cls-11, .cls-12, .cls-13, .cls-14, .cls-15, .cls-16, .cls-17, .cls-18, .cls-19, .cls-20, .cls-21, .cls-22, .cls-23, .cls-24, .cls-25, .cls-26, .cls-27, .cls-28, .cls-29, .cls-30, .cls-31, .cls-32, .cls-33, .cls-34, .cls-35, .cls-36, .cls-37, .cls-38, .cls-39, .cls-40, .cls-41, .cls-42, .cls-43, .cls-44, .cls-45, .cls-46, .cls-47, .cls-48, .cls-49, .cls-50, .cls-51, .cls-52, .cls-53, .cls-54, .cls-55, .cls-56, .cls-57, .cls-58, .cls-59, .cls-60, .cls-61, .cls-62, .cls-63, .cls-64, .cls-65, .cls-66, .cls-67, .cls-68, .cls-69, .cls-70, .cls-71, .cls-72, .cls-73, .cls-74, .cls-75, .cls-76, .cls-77, .cls-78, .cls-79, .cls-80, .cls-81, .cls-82, .cls-83, .cls-84, .cls-85, .cls-86, .cls-87, .cls-88, .cls-89, .cls-90, .cls-91, .cls-92, .cls-93, .cls-94, .cls-95, .cls-96, .cls-97, .cls-98, .cls-99, .cls-100, .cls-101, .cls-102 {
        stroke-width: 0px;
      }

      .cls-2 {
        fill: #efab4e;
      }

      .cls-3 {
        fill: #fcb15b;
      }

      .cls-4 {
        fill: #1c1a16;
      }

      .cls-5 {
        fill: #aac86f;
      }

      .cls-6 {
        fill: #8bae51;
      }

      .cls-7 {
        fill: #b9c76a;
      }

      .cls-8 {
        fill: #2b3130;
      }

      .cls-9 {
        fill: #fad696;
      }

      .cls-10 {
        fill: #bc4e22;
      }

      .cls-11 {
        fill: #c9751f;
      }

      .cls-12 {
        fill: #e5912f;
      }

      .cls-13 {
        fill: #d46a32;
      }

      .cls-14 {
        fill: #fdb05b;
      }

      .cls-15 {
        fill: #d8793b;
      }

      .cls-16 {
        fill: #d87739;
      }

      .cls-17 {
        fill: #c76b13;
      }

      .cls-18 {
        fill: #c8652e;
      }

      .cls-19 {
        fill: #fccf85;
      }

      .cls-20 {
        fill: #d1672e;
      }

      .cls-21 {
        fill: #d46c32;
      }

      .cls-22 {
        fill: #fdc070;
      }

      .cls-23 {
        fill: #fdab59;
      }

      .cls-24 {
        fill: #fbc76a;
      }

      .cls-25 {
        fill: #df7538;
      }

      .cls-26 {
        fill: #dc6c2e;
      }

      .cls-27 {
        fill: #fcbe71;
      }

      .cls-28 {
        fill: #cd652d;
      }

      .cls-29 {
        fill: #cb521b;
      }

      .cls-30 {
        fill: #e5874f;
      }

      .cls-31 {
        fill: #f1b85e;
      }

      .cls-32 {
        fill: #fda256;
      }

      .cls-33 {
        fill: #d79341;
      }

      .cls-34 {
        fill: #e0813e;
      }

      .cls-35 {
        fill: #79a43f;
      }

      .cls-36 {
        fill: #c5430f;
      }

      .cls-37 {
        fill: #485457;
      }

      .cls-38 {
        fill: #fdbe73;
      }

      .cls-39 {
        fill: #b84b1a;
      }

      .cls-40 {
        fill: #f89e53;
      }

      .cls-41 {
        fill: #feca6d;
      }

      .cls-42 {
        fill: #bb380a;
      }

      .cls-43 {
        fill: #facb8a;
      }

      .cls-44 {
        fill: #f8ad5c;
      }

      .cls-45 {
        fill: #fa9e54;
      }

      .cls-46 {
        fill: #384549;
      }

      .cls-47 {
        fill: #567c1f;
      }

      .cls-48 {
        fill: #fbcf89;
      }

      .cls-49 {
        fill: #9e2608;
      }

      .cls-50 {
        fill: #ba390c;
      }

      .cls-51 {
        fill: #cb7c20;
      }

      .cls-52 {
        fill: #c3d176;
      }

      .cls-53 {
        fill: #b4340a;
      }

      .cls-54 {
        fill: #d36932;
      }

      .cls-55 {
        fill: #944405;
      }

      .cls-56 {
        fill: #749736;
      }

      .cls-57 {
        fill: #d25e24;
      }

      .cls-58 {
        fill: #b14218;
      }

      .cls-59 {
        fill: #fec77c;
      }

      .cls-60 {
        fill: #e6973b;
      }

      .cls-61 {
        fill: #f7d99c;
      }

      .cls-62 {
        fill: #fde5ac;
      }

      .cls-63 {
        fill: #d66d34;
      }

      .cls-64 {
        fill: #fddea0;
      }

      .cls-65 {
        fill: #5f8924;
      }

      .cls-66 {
        fill: #a12709;
      }

      .cls-67 {
        fill: #191815;
      }

      .cls-68 {
        fill: #f9ba5b;
      }

      .cls-69 {
        fill: #fdbb69;
      }

      .cls-70 {
        fill: #87a947;
      }

      .cls-71 {
        fill: #d46c30;
      }

      .cls-72 {
        fill: #d64f10;
      }

      .cls-73 {
        fill: #c5d774;
      }

      .cls-74 {
        fill: #f7bc60;
      }

      .cls-75 {
        fill: #ec964a;
      }

      .cls-76 {
        fill: #b1ce75;
      }

      .cls-77 {
        fill: #fcb66f;
      }

      .cls-78 {
        fill: #ca501a;
      }

      .cls-79 {
        fill: #eca241;
      }

      .cls-80 {
        fill: #a8bc55;
      }

      .cls-81 {
        fill: #eeae60;
      }

      .cls-82 {
        fill: #ad330e;
      }

      .cls-83 {
        fill: #a9580b;
      }

      .cls-84 {
        fill: #efac4d;
      }

      .cls-85 {
        fill: #d7943e;
      }

      .cls-86 {
        fill: #de7135;
      }

      .cls-87 {
        fill: #4f5a5b;
      }

      .cls-88 {
        fill: #fec477;
      }

      .cls-89 {
        fill: #1e201d;
      }

      .cls-90 {
        fill: #364449;
      }

      .cls-91 {
        fill: #db9f4e;
      }

      .cls-92 {
        fill: #d77536;
      }

      .cls-93 {
        fill: #5c891f;
      }

      .cls-94 {
        fill: #a62a09;
      }

      .cls-95 {
        fill: #f49c50;
      }

      .cls-96 {
        fill: #a72b09;
      }

      .cls-97 {
        fill: #646965;
      }

      .cls-98 {
        fill: #e3a36d;
      }

      .cls-99 {
        fill: #d17f2a;
      }

      .cls-100 {
        fill: #f5b86a;
      }

      .cls-101 {
        fill: #2b373b;
      }

      .cls-102 {
        fill: #f89c52;
      }
    </style>
  </defs>
  <g id="_Слой_1-2" data-name="Слой 1">
    <g>
      <path class="cls-69" d="m148.36,129.95c1.35,6.25,2.8,12.48,3,18.91-4.18,2.28-7.36-1.08-10.99-1.92-8.56-4.14-17.59-7.18-26.27-11.03-4.57-2.65-9.4-4.94-12.81-9.21-1.12-1.4-2.69-2.59-2.03-4.74,1.43-1.71,3.87-1.34,5.49-2.67.92-.61,1.74-1.38,2.7-1.93.39-.18.81-.3,1.24-.36,1.45.08,2.9.01,4.3-.46.98.21,1.4.97,1.79,1.77,1.04,2.87,3.08,4.83,5.74,6.2,3.24,2.58,7.54,1.23,10.99,2.98.89,3.09-3.16,1.7-3.45,4.03,4.37,1.8,9.07,2.24,13.72,3.07,4.06.72,4.03-3.64,6.58-4.64Z"/>
      <path class="cls-49" d="m119.47,22.9c.13.68.27,1.37.4,2.05-.45,2.56-2.72,1.96-4.33,2.44-3.67,1.1-6.78,3.52-10.51,4.48-2.39.59-4.79,1.14-7.17,1.82-1.59.4-3.2.71-4.79,1.14-2.59.53-5.15,1.17-7.47,2.51-.54.36-1.08.72-1.62,1.08-.35.26-.71.49-1.08.72-1.85,1.17-3.21,2.86-4.74,4.37-2.1,2.3-4.64,4.09-7.03,6.07-1.01.91-2.05,1.78-3.38,2.21-2.36.6-4.42,1.88-6.59,2.91-1.32.76-2.64,1.54-4.09,2.05-1.44.43-2.8,1.01-3.85,2.14-3.03,2.68-6.18,5.24-8.5,8.62-1.41,2.54-2.79,5.09-4.32,7.56-.79,1.37-1.65,2.69-2.98,3.6-1.41,1.02-2.97,1.84-4.18,3.13-1.91,2.11-2.66,4.51-1.89,7.31.06,1.32-.39,2.36-1.6,2.99-2.82-.51-3.77-2.81-4.81-5.03-.22-1.28.21-2.4.88-3.46.78-1.2,1.55-2.41,2.32-3.61,20.71-28.88,48.2-47.93,82.62-56.93,1.93-.47,3.94-.39,5.86-.94,1.06-.15,2.03,0,2.83.79Z"/>
      <path class="cls-51" d="m119.47,22.9c-.95,0-1.91,0-2.86.01-35.24-.22-60.93,17.9-82.75,43.28-4.31,5.01-6.7,11-7.14,17.67-.38,1.02-.75,2.04-1.13,3.06-3.69-2.21-4.29-5.95-4.87-9.71,2.06-10.13,9.03-17.21,15.87-24.04,7.36-7.34,15.9-13.41,24.62-19.12,7.56-5.59,16.68-7.88,25.05-11.8.48-.22.97-.39,1.48-.53,9.26-3.25,18.72-4.03,28.39-2.45,1.3.21,2.71.08,3.32,1.63,0,.67.02,1.33.02,2Z"/>
      <path class="cls-9" d="m125.58,43.93c2.62,7.12,4.72,14.38,6.17,21.83.05,2.58-2.16,2.26-3.65,2.87-3.35.58-6.64,1.54-10.01,2.03-2.04.64-2.8,2.9-4.69,3.73-4.4-1.27-5.1-2.76-2.82-6.35.95-1.5,2.08-2.9,2.91-4.48,1.35-2.13,3.15-3.95,4.25-6.25,1.53-4.4-.26-8.06-2.58-11.58-.9-1.36-2.45-2.28-2.85-4.01,1.45-3.24,3.86-3.1,6.48-1.74,2.33,1.2,4.23,3.14,6.8,3.95Z"/>
      <path class="cls-91" d="m60.47,16.79C73.33,8.99,86.84,2.84,101.79.24c5.8-1.01,10.02,1.12,13.07,6.05,1.67,2.7,3.08,5.47,3.56,8.64-1.73,3.6-4.93,4.16-8.42,3.95-8.11-.49-15.84,1.09-23.35,4.02h0c-2.26.61-4.36,2.09-6.89,1.27-.38-.45-.46-.95-.23-1.5,6.52-4.62,14.08-6.02,21.75-7.11,2.82.04,5.65.12,8.48-.03,2.34-.13,2.76-1.27,2.05-3.34-1.46-4.23-5.73-7.22-10.55-6.79-3.95.36-7.93.89-11.65,2.49-7.47,3.21-15.32,5.56-22.27,9.93-5.15,2.2-9.38,5.88-14.06,8.83-1.35.85-2.47,2.25-4.36,1.56-1.27-3.05,1.5-3.86,3.05-5.19,2.68-2.29,6.31-3.29,8.51-6.27Z"/>
      <path class="cls-17" d="m140.6,145.87c3.63.86,6.89,3.03,10.77,2.99-.35,2.79-1.98,2.63-4.19,2.12-11.35-2.6-22.19-6.65-32.94-10.99-22.91-9.25-45.23-19.72-66.51-32.33-.12-.92.46-1.27,1.2-1.5,3.31.15,5.55,2.56,8.31,3.9,5.07,3,10.44,5.4,15.71,8,6.12,3,12,6.49,18.41,8.89,3.06,1.44,6.37,1.83,9.67,2.29,1.53.29,3.17.39,3.88,2.15,1.96,3.05,5.54,3.14,8.42,4.31,8.99,3.66,17.72,8.07,27.28,10.18Z"/>
      <path class="cls-64" d="m139.56,92.88c.99,4,1.98,8.01,2.96,12.01-1.12,1.55.55,2.73.57,4.15.03,1.84.32,3.73-2.24,4.13-.78-.17-1.36-.62-1.82-1.25-2.14-7.3-7.87-9.76-14.64-10.83-.49-.59-.75-1.28-.89-2.02-.18-2.62-.26-5.26-1.42-7.71-.22-.67-.32-1.36-.35-2.06.29-2.39-3.19-4.31-.9-6.96,1.77-.83,3.57-1.47,5.56-.92,2.74,5.23,5.42,10.51,10.59,14.11,1.45-.16.31-3.19,2.57-2.64Z"/>
      <path class="cls-62" d="m139.56,92.88c-1.87,1.24-.24,3.31-1.12,5.66-5.49-5.05-11.52-8.81-11.87-16.8-.39-.98.13-1.75.58-2.54,1.21-1.72,1.47-3.63,1.08-5.66-.01-1.91-3.63-3.41-.64-5.66,1.27-.93,3.14-.68,4.16-2.11,3.26,8.85,5.38,18.02,7.81,27.11Z"/>
      <path class="cls-88" d="m148.36,129.95c-1.75,5.98-3.37,6.97-9.78,5.67-3.52-.71-7-1.63-10.47-2.56-1.13-.31-3.05-.12-2.73-2.04.23-1.35,1.55-2.04,2.99-2.15,1.13-.09,2.33.14,3.25-.81,2.26-2.41,4.82-4.38,7.97-5.51,2.44,1.6,4.52,2.63,4.09-1.97-.13-1.39-.77-3.4,1.77-3.65.97,4.34,1.94,8.69,2.91,13.03Z"/>
      <path class="cls-11" d="m48.67,106.84c-.32.27-.64.55-.95.82-15.62-8.47-30.26-18.38-44.05-29.6-4.04-3.29-4.53-7.09-2.52-11.48,3.09-6.74,7.83-12.21,13.49-16.92,1.41,1.65.48,3.22-.43,4.52-2.78,3.94-4.75,8.28-6.53,12.72-.41.6-.9,1.13-1.4,1.66-2.92,4.14-2.68,5.65,1.9,9.37,9.17,7.43,18.92,14.06,28.93,20.31,3.22,1.85,6.49,3.61,9.51,5.77.98.7,2.48,1.1,2.05,2.84Z"/>
      <path class="cls-27" d="m125.58,43.93c-2.32,2.25-3.36-.33-4.8-1.3-2.54-1.72-4.97-4.02-8.12-1.08-2.8,1.25-4.67-.2-6.36-2.18-.09-1.55.31-2.88,1.69-3.77,1.89-.02,2.55-1.41,3.16-2.86.72-.99,1.67-1.54,2.92-1.46,1.45.51,2.41.11,2.71-1.5.68-2.01,2.28-2.24,4.07-2.11,2.12,5.26,3.35,10.79,4.73,16.27Z"/>
      <path class="cls-99" d="m6.7,66.85c.81-6.58,6.37-10.96,7.94-17.19,6.63-6.79,13.95-12.73,21.96-17.81,1.06,1.85,1.14,1.91-.2,3.4-2.3,2.56-4.85,4.89-7.2,7.4-6.94,6.69-13.86,13.36-17.87,22.41-.81,1.83-2.17,3.58-4.63,1.8Z"/>
      <path class="cls-33" d="m28.68,41.89c2.31-2.47,4.67-4.9,6.9-7.44.59-.67,2.36-1.1,1.03-2.6,7.37-5.95,15.42-10.82,23.87-15.05,1.02,2.31-1.15,2.45-2.24,3.36-3.16,2.61-7.38,3.93-9.55,7.75-.11.74-.52,1.3-1.07,1.77-6.24,3.98-11.09,9.76-17.46,13.57-.8-.11-1.26-.59-1.47-1.35Z"/>
      <path class="cls-44" d="m114.52,31.94c-.97.32-1.95.63-2.92.95-1.81.22-1.66,2.43-3.08,3.05-.67,1-1.33,1.99-2,2.99-1.32,1.78-2.97,2.25-4.99,1.27-.96-1.07-1.01-2.31-.68-3.63,1.45-1.78,2.04-4.12,3.73-5.75,5.04-2.11,9.75-5.07,15.29-5.88,1.17.6.76,1.78.98,2.72-.75,1.23-3,.3-3.24,2.26-.95.79-2.26,1.03-3.08,2.01Z"/>
      <path class="cls-43" d="m145.46,116.92c-1.32,1.19-1.03,2.73-.62,4.08.61,2,1.31,3.95-1.48,4.64-2.43.6-3.6-.83-3.94-3.11-.56-.63-.77-1.39-.8-2.21.59-2.51.11-5.32,2.01-7.49,1.97-.98,2.23-2.61,1.63-4.49-.39-1.21-1.17-2.4.25-3.46.98,4.01,1.96,8.02,2.94,12.03Z"/>
      <path class="cls-85" d="m86.65,22.91c6.16-3.99,13.18-4.73,20.21-4.91,4.19-.11,8.13-.43,11.56-3.06.58,1.95,1.41,3.85,1.03,5.96-11.09-1.96-22.01-.99-32.8,2.01Z"/>
      <path class="cls-59" d="m112.68,116.75c-.81,3.65-2.97.46-4.43.87-3.34-10.44-5.3-11.35-15.45-7.19-2.35.47-4.23-.92-6.32-1.53-1.59-.67-3.19-1.32-4.19-2.85-.74-1.93.41-3.22,1.54-4.51,1.17-1.13,2.24-2.35,3.31-3.58.52-.51,1.13-.85,1.82-1.07,3.87-.75,7.36-2.01,8.91-6.18.53-1.43,1.83-1.8,3.29-1.63.95.16,1.84.48,2.74.79,1.74.74,3.56,1.32,4.9,2.76.4,5.09,2.03,9.61,6.03,13.05.42,1.22-.07,2.33-.4,3.45-.65,1.59-.49,3.27-.61,4.93-.11,1.01-.31,1.98-1.15,2.68Z"/>
      <path class="cls-3" d="m86.64,107.85c1.91.65,3.82,1.31,5.73,1.96,1.08.89.48,2.07.54,3.14-.16,1.94,0,3.8,1.5,5.27,1.34,1.84,3.99,1.86,5.24,3.8,2.53,5.07,6.67,8.43,11.67,10.81,1.18.56,2.53.81,3.29,2.04-3.98,1.1-7.06-.66-9.92-3.11-1.38-.59-2.76-1.17-4.14-1.76-8.1-3.02-15.29-7.57-21.96-13.02-.99-2.1-.46-3.87,1.86-4.09,3.37-.31,4.75-2.6,6.19-5.04Z"/>
      <path class="cls-1" d="m112.68,116.75c.02-.98.04-1.96.06-2.93,1.92-1.69,4.37-1.6,6.59-1.45,5.8.39,11.26,2.27,16.57,4.54,1.73.74,2.85,2.19,3.63,3.89-.03.58-.06,1.16-.09,1.73-1.9,2.83-4.42,4.79-7.81,5.52-4.23-.34-8.86.87-12.11-3.19.19-.16.37-.31.56-.47,4.22-.64,8.4,2.48,12.63.14,2.43-1.23.79-1.88-.4-2.49-5.82-2.96-11.81-5.01-18.47-3.35-.39-.65-.77-1.3-1.16-1.95Z"/>
      <path class="cls-37" d="m91.73,112.87c.21-1.02.42-2.04.64-3.06,2.57-2.5,5.75-3.17,9.15-2.75,5.28.66,7.37,4.04,6.73,10.56-.19.03-.39.08-.58.14-1.33-.67-2.29-1.84-3.58-2.56-1.77-1.35-3.3-3.66-5.96-1.52-.81.49-1.66.86-2.61.97-1.6.14-2.78-.63-3.78-1.78Z"/>
      <path class="cls-57" d="m113.83,118.7c2.6-3.2,6.12-2.07,9.17-1.46,3.7.73,7.2,2.32,10.62,4.04,3.51,1.76,2.8,3.05-.11,4.46-5.21-.71-9.53-4.63-14.96-3.83.33.72,1.84,1.41,1.09,2.93,0,0-.14.03-.14.03-3.17-.88-4.72-3.25-5.68-6.16Z"/>
      <path class="cls-72" d="m104.69,131.76c3.22,1.31,6.44,2.64,9.92,3.11,8.69,3.61,17.63,6.61,25.99,11.01-3.99,1.61-7.24-.99-10.55-2.2-8.48-3.09-16.76-6.75-25.09-10.25-.51-.22-3.02-.69-.27-1.67Z"/>
      <path class="cls-101" d="m104.29,114.65c1.89.21,3.19,1.06,3.38,3.11-.35.99-.98,1.72-1.99,2.08-4.36,1.68-8.54,1.05-12.62-.96-2.12-1.63-1.52-3.87-1.33-6.01,1.32.32,2.64.64,3.96.96,2.15,2.38,4.4,4.03,7.32,1.06.39-.27.82-.34,1.28-.23Z"/>
      <path class="cls-4" d="m93.07,118.88c4.21.32,8.41.64,12.62.96-1.66,1.7-3.84,1.97-6.04,2.18-2.54-.31-4.97-.87-6.58-3.14Z"/>
      <path class="cls-32" d="m86.64,107.85c.57,4.12-1.06,6.24-5.38,5.99-2.77-.15-2.36,1.44-1.67,3.15-3.21,1.21-5.6-1.14-8.3-2.01-4.53-1.47-8.72-3.77-12.96-5.91-1.92-.96-3.8-2.03-5.24-3.65-4.43-5.01-10.68-6.95-16.4-9.79-2.49-1.79-4.47-4.05-6.09-6.64-2.14-3.44-.27-5.83,2.1-8.1,2.68.88,3.2-1.27,4.08-2.92.97-1.03,1.93-2.07,2.9-3.1.7.05,1.28.37,1.83.78,1.19,1.01,2.68,1.8,2.8,3.64-.1,2.47-.93,4.96.11,7.39,1.7,1.01,1.16-.92,1.75-1.36,1.23-2.07,2.25-4.41,5.35-3.91,1.98,2.02,4.53,3.06,7.09,4.08.31.35.49.77.56,1.23-.54,4.38.07,8.41,3.6,11.52.62.65,1.13,1.39,1.69,2.08,1.59,2.02,3.68,3.15,6.23,3.47,2.22.61,4.42.86,6.73.33,1.92-.45,3.94-.7,5.03,1.63,1.4.7,2.79,1.4,4.19,2.1Z"/>
      <path class="cls-55" d="m110.64,23.93c-7.66,3.04-15.63,5.16-23.2,8.51-24.12,10.68-43.04,27.57-58.72,48.43-1.86-2.04-.71-4.04.11-6.01,2-4.85,5.16-8.99,8.68-12.73,17.17-18.28,37.32-31.96,61.75-38.63,3.66-1,7.71-2.61,11.39.43Z"/>
      <path class="cls-83" d="m110.64,23.93c-5.58-2.18-10.96-.21-15.93,1.63-20.67,7.62-38.95,19.22-54.2,35.17-5.41,5.66-11.21,11.48-11.79,20.15-.67,1-1.34,1.99-2,2.99-2.09-3.76-.18-7.16,1.24-10.4,4.26-9.69,11.83-16.85,19.53-23.67,11.77-10.42,25.1-18.44,39.95-23.8,9.48-3.42,19.05-5.82,29.18-3.09-1.75,1.77-3.98.67-5.97,1.02Z"/>
      <path class="cls-41" d="m36.64,99.03c-11.26-6.45-21.81-13.9-31.62-22.39-3.72-3.22-3.42-5.25.67-8.85,7.28-1.06,12.48,1.96,15.85,9.22.58,3.62,2.6,6.64,4.05,9.91,1.36,1.6,2.73,3.2,4.09,4.8,2.86-.3,4.35,1.98,6.33,3.33.72.54,1.64.87,2,1.81.07,1.05-.36,1.79-1.36,2.17Z"/>
      <path class="cls-14" d="m67.79,51l2.76-2.17c2.83-.99,4.94-3.17,7.49-4.62,1.02-.41,3.59,1.3,2.72-1.66-.69-2.34,1.13-3.13,2-4.53.22-.16.47-.25.74-.26,2.12-1,3.86,2.77,6.09.49,2.08,1.42,2.96,3.82,4.6,5.61.03,2.38-1.48,4.48-1.26,6.9,0,.95-.02,1.91.07,2.86.11,1.47.62,2.93.09,4.41-.77,1.44-1.96,2.35-3.54,2.74-3.79.65-6.18-3.01-9.73-3.13-2.44-1.94-5.42-1.04-8.13-1.53-1.66-2.6,1.39-2.66,2.22-4-2.06-.49-4.89,3.45-6.11-1.11Z"/>
      <path class="cls-21" d="m67.79,51c1.27,1.58,2.56,1.95,4.03.2.92-1.08,2.13-1.79,3.48-.85.6.42,1.23,1.31,1.22,1.98-.03,2.04-1.78,1.51-2.99,1.63-1.23.12-1.78.72-1.76,1.92,0,2.1-1.86,2.14-3.12,2.85-5.7,1.36-5.96,1.2-8.01-4.87,2.31-1.14,4.22-3.25,7.15-2.86Z"/>
      <path class="cls-75" d="m101.65,35.92c0,1.29,0,2.57.01,3.86-1.14,1.87-2.96,2.51-4.99,2.76-4.78-2.32-5.27-3.36-3.99-8.6l4.81-1.17c2.87-.91,4.34.03,4.16,3.15Z"/>
      <path class="cls-102" d="m43.9,66.92c2.23-3.7,5.41-6.47,8.86-8.96,1.27-.93,2.52-.97,3.34.47.81,1.43.58,2.99-.61,4.11-1.29,1.21-2.35,2.32-1.31,4.19.02,1.36-.72,2.2-1.87,2.76-2.63,1.17-4.61-1.57-7.12-1.2-.76-.14-1.15-.64-1.3-1.37Z"/>
      <path class="cls-20" d="m53.67,66.73c-1.12-1.3-6.83-2.47-.1-4.01,1.5-.34,2.13-1.48,2.07-2.98-.08-1.98-1.52-1.83-2.87-1.77.87-1.48,2.31-1.92,3.88-2.1,1.06.46,2.27.98,2.45,2.17.32,2.09,1.14,1.53,2.8,1.41,3.16-.24,4.28,1.74,2.86,4.77-1.6,1.16-3.61.72-5.34,1.36-.86.29-1.7.64-2.54,1-1.06.31-2.09,1.13-3.21.16Z"/>
      <path class="cls-45" d="m43.9,66.92c.26.31.51.62.77.92,1.9,1.34,4.38,1.9,5.54,4.21.33,2.95-1.1,4.58-3.87,5.23-1.89-.46-3.76-1.01-5.66-1.43-.33-.33-.66-.66-.99-.99.81-2.96,2.79-5.31,4.21-7.95Z"/>
      <path class="cls-28" d="m92.68,33.94c.71,3.01.29,6.59,4.04,8.08-.12,1.93-1.36,2.18-2.92,1.95-2.54-.75-3.93-2.44-4.15-5.09-1.7-.62-3.72-.46-5.05-2.02,2.33-1.98,5.09-2.79,8.08-2.93Z"/>
      <path class="cls-40" d="m64.64,63.73c.06-1.56-.06-3.12-1.86-3.64-1.74-.51-1.71.74-1.91,1.99-.17,1.05-1.24.82-2.03.61-.78-.2-1.14-.9-.77-1.52,1.4-2.33-.5-3.67-1.44-5.31,1.33-.67,2.67-1.33,4-2,.56.25,1.59.49,1.6.76.2,5.02,3.5,3.65,6.37,3.17.09,2.48-1.94,4.01-2.72,6.09-.46.23-.88.19-1.26-.16Z"/>
      <path class="cls-71" d="m82.77,38.03c.01,1.6-2.99,3.21.12,4.83.84.44.74,1.56.05,2.14-1.42,1.19-2.95,1.38-4.41-.05-.48-.61-.92-1.24-.89-2.07,1.28-2.07,2.99-3.68,5.13-4.85Z"/>
      <path class="cls-92" d="m101.65,35.92c-1.19-1.3-1.58-3.66-4.16-3.15,2.25-1.08,4.61-1.74,7.1-1.95-1.15,1.6,1.12,5.18-2.94,5.1Z"/>
      <path class="cls-10" d="m35.72,95.77c-2.02-1.35-4.03-2.7-6.05-4.05.31-.91.63-1.82.94-2.73,2.54,1.39,4.23,3.74,6.28,5.67-.07.7-.71.81-1.17,1.11Z"/>
      <path class="cls-95" d="m77.64,42.88c.83.46.98,1.21.89,2.07-2.3,2.04-4.72,3.83-7.98,3.89,2.36-1.99,4.73-3.97,7.09-5.96Z"/>
      <path class="cls-34" d="m84.6,36.86c1.78.42,3.64.66,5.05,2.02-.56.27-1.33.39-1.65.83-.62.86-.62,2.46-2.24,1.95-1.56-.49-.84-1.79-.83-2.88,0-.33-.92-.67-1.42-1.01.36-.3.72-.6,1.09-.9Z"/>
      <path class="cls-54" d="m36.79,77.97c-.02.32,0,.65-.06.97-.24,1.46,1.82,3.31-.36,4.33-2.07.97-2-2.21-3.67-2.38,1.36-.97,2.72-1.94,4.08-2.92Z"/>
      <path class="cls-12" d="m21.54,77.01c-1.87-1.83-3.72-3.68-5.62-5.49-2.86-2.72-6.19-4.21-10.23-3.73.34-.32.67-.63,1.01-.95,2.32.38,3.23-1.16,3.99-2.92,3.89-9.06,10.65-15.79,17.99-22.04.34.34.68.67,1.02,1.01.68,2.11-.99,3.36-1.84,4.87-.98,1.73-2.18,3.35-2.62,5.32-.33,1.49-.54,3.09.84,4.13,1.56,1.18,2.93.09,3.92-.98,4.09-4.36,9.06-7.76,13.17-12.09,5.08-4.1,9.96-8.54,16.55-10.2.78.07,1.46.33,1.97.96-8.26,5.96-16.75,11.71-24.02,18.81-6.79,6.64-13.2,13.84-16.13,23.3Z"/>
      <path class="cls-85" d="m61.69,34.91c-.68,0-1.37-.02-2.05-.03-.48-2.22,1.32-2.82,2.69-3.56,1.91-1.03,3.67-2.19,5.12-3.81,1.22-.81,2.62-1.18,3.98-1.66,2.8-.42,5.15-2.72,8.23-1.95,2.33-.33,4.66-.66,6.99-.98-3.27,2.88-7.57,3.86-11.41,5.31-4.8,1.81-9.09,4.34-13.55,6.68Z"/>
      <path class="cls-19" d="m120.63,83.05c-.82,2.42,3.71,3.11,1.89,5.85-2.93,1.46-4.9-1.32-7.43-1.66-2.83-1.04-6.46.1-8.5-3.11-1.87-2.88-6.11-2.38-7.73-6.22-2.19-5.19,1.02-12.45,6.74-13.24,1.62-.22,3.29.02,4.88-.48.65-.33,1.31-.63,2.01-.86.74-.17,1.44-.14,2.06.37-.58,1.74-1.55,3.21-2.79,4.57-2.38,2.63-2.19,4.66,1.62,5.57,2.16,1.42.99,4.44,2.9,5.97,1.31,1.26,3.53,1.29,4.34,3.22Z"/>
      <path class="cls-94" d="m93.8,43.97c.97-.65,1.95-1.3,2.92-1.95,1.65-.75,3.3-1.49,4.94-2.24,1.82.83,3.15-1.11,4.86-.85,1.72,1.63,4.14,1.64,6.14,2.62,5.49,3.29,6.12,9.05,7.27,14.5.1.49-.93,1.21-1.43,1.83-1.19.98-2.16.32-3.05-.47-1-.88-1.65-2.06-2.44-3.11-5.29-6.98-8.61-7.79-16.37-3.97-1.6.79-3.1,2.14-4.96.56-.54-2.69.64-4.84,2.11-6.91Z"/>
      <path class="cls-50" d="m91.69,50.88c3.62.04,5.82-3.25,9.37-3.77,5.52-.8,8.65.37,12.57,5.67,1.39,1.88,1.85,4.76,4.89,5.09-.38,2.58-2.4,4.05-3.95,5.84-.59.08-1.18.16-1.76.24-.97.57-1.24-.06-1.43-.83.15-.46.39-.86.7-1.22,2.33-2.56.12-3.43-1.7-4.21-5.91-2.54-11.99-4.43-18.56-3.91-.04-.97-.08-1.94-.12-2.91Z"/>
      <path class="cls-46" d="m115.6,80.8c-2.99-1.6-1.83-4.51-2.21-6.94.9-2.02,2.36-3.46,4.43-4.27,4.48-1,8.25.35,11.48,3.48.05,2.34,1.3,4.88-1.1,6.83-4.04,2.54-8.29,2.19-12.61.9Z"/>
      <path class="cls-98" d="m129.3,73.07c-3.83-1.17-7.01-4.48-11.49-3.48,3.29-.41,6.3-2.35,9.77-1.72-1.72,2.49,1.92,3.21,1.72,5.2Z"/>
      <path class="cls-24" d="m71.65,26.88c-1.22.73-2.51,1.18-3.95,1.06-.8,1.24-1.92,1.93-3.41,2-3.7-1.44-4.37-3-2.27-6.08,1.99-2.94,4.89-5.05,7.87-6.81,8.79-5.2,18.24-8.85,28.23-11,4.6-.99,8.56.37,11.72,3.87,1.15,1.27,2.01,2.73,1.33,4.53-.74,1.94-2.46,1.89-4.16,1.98-1.79.1-3.65-.53-5.36.47-7.76.41-14.74,3.68-21.97,6.01-2.47,1.71-5.69,1.93-8.01,3.97Z"/>
      <path class="cls-31" d="m101.63,16.9c1.31-1.52,3.09-.86,4.69-.97,1.5-.1,3.16.11,3.92-1.54.91-1.98-.74-3.03-1.85-4.2-2.76-2.9-6.26-3.97-10.01-2.98-11.91,3.15-23.58,6.89-33.28,14.99-1.73,1.44-3.24,3.03-3.18,5.34.04,1.61,1.65,1.24,2.76,1.36.46,1.55-.71,2.04-1.73,2.55-3.27,1.63-6.25,3.74-9.47,5.46-1.69.9-3.5,1.61-4.97-.13-1.39-1.65-.73-3.46.33-5.06,1.46-2.22,3.11-4.23,5.34-5.82,4.17-2.98,8.36-5.94,12.49-8.98,10.06-5.75,20.57-10.3,32.02-12.55,7.06-1.39,11.66,1.07,14.64,7.78,1.41,3.18.06,4.43-2.75,4.67-2.96.25-5.96.06-8.94.07Z"/>
      <path class="cls-84" d="m66.66,16.92c-3.13,4.14-7.81,6.44-11.72,9.65-2.25,1.85-3.5,4.31-5.5,6.23-.91.87-1.03,2.18-.39,3.21.73,1.16,2.08,1.08,3.11.52,4.28-2.35,8.92-4.12,12.5-7.63,1.01-.32,2.02-.65,3.03-.97-.08,2.48-2.2,2.94-3.84,3.88-1.52.86-3.39,1.25-4.22,3.07-6.12,2.07-10.75,6.49-15.95,10.01-.69.46-1.4.89-1.99,1.47-1.51,1.49-3.12,1.78-4.85.41-1.68-1.33-1.8-3.06-1.12-4.92.93-2.54,2.54-4.62,4.49-6.45,2.4-2.27,4.87-4.46,7.47-6.5.33-.34.67-.67,1-1.01,4.27-2.75,8.49-5.56,12.82-8.2,1.66-1.01,3-2.67,5.16-2.77Z"/>
      <path class="cls-31" d="m71.65,26.88c1.73-3.22,4.96-3.4,8.01-3.97,0,.33,0,.66,0,.99-2.56,1.28-5.13,2.54-8.01,2.98Z"/>
      <path class="cls-36" d="m58.59,108.03c7,2.99,14,5.98,21,8.96,6.98,4.34,13.97,8.67,20.95,13.01-3.1-.09-6.24,0-8.86-2.1-6.21-2.84-12.31-5.91-18.25-9.28-5.02-2.33-9.86-4.98-14.7-7.66-.63-.34-1.12-.81-1.35-1.51-.02-.83.47-1.23,1.2-1.42Z"/>
      <path class="cls-74" d="m57.68,108.83c.31.36.63.72.94,1.08-.02,1.61-.78,1.66-1.92.91-2.68-1.32-5.36-2.65-8.03-3.97-4.01-2.6-8.02-5.21-12.03-7.81.34-.64.68-1.28,1.01-1.92,5.84.55,9.76,4.89,14.53,7.52,1.97,1.08,3.8,2.63,5.5,4.21Z"/>
      <path class="cls-2" d="m56.71,110.82c.77-.03,1.5-.14,1.92-.91,4.97,2.71,9.94,5.42,14.91,8.13.19.86.05,1.36-.97.9-5.54-2.22-10.89-4.8-15.86-8.12Z"/>
      <path class="cls-60" d="m72.57,118.94c.32-.3.65-.6.97-.9,6,3.37,12.48,5.87,18.14,9.87-6.93-1.79-12.98-5.47-19.12-8.96Z"/>
      <path class="cls-66" d="m113.61,108.81c.35-.99.7-1.98,1.05-2.96,2-4.28,5.34-5.97,9.97-5.16,9.68.43,13.54,3.3,14.98,11.12.58.7.51,1.56.45,2.37-.06.92.42,2.13-.78,2.6-1.04.41-2.04-.23-2.62-1-5.52-7.29-13.02-5.99-20.48-4.76-1.95.32-3.36.45-2.59-2.21Z"/>
      <path class="cls-53" d="m113.61,108.81c.23.97.49,2.32,1.81,1.44,6.64-4.45,13.23.84,19.84-.02.93-.12.59.84.51,1.45-.31,2.48,1.69,3.24,3.04,4.71,1.28-1.66.54-3.19.81-4.58.34.34.68.68,1.02,1.02-.3,2.67.1,5.43-1.12,7.97-8.06-5.67-17.07-7.67-26.78-6.98-.17-1.75-.55-3.53.88-5Z"/>
      <path class="cls-48" d="m124.63,100.69c-3.74.91-7.21,2.36-9.97,5.16-4.69-2.09-7.49-8.13-6.02-12.96-.37-.49-.34-.96.1-1.4,3.5-1.74,6.63-.46,9.7,1.21,2.22,1.82,4.14,3.95,6.12,6.02.02.65.05,1.31.07,1.96Z"/>
      <path class="cls-7" d="m124.56,98.73c-2.95-.46-4.35-2.76-5.87-4.92.23-1.97-2.07-2.49-2.37-4.15.08-.74.52-1.17,1.18-1.42,2.31-.32,3.44,1.81,5.24,2.54,2.41,2.23,1.99,5.12,1.82,7.94Z"/>
      <path class="cls-89" d="m115.6,80.8c4.19-.43,8.49.58,12.61-.9-.55.61-1.09,1.22-1.64,1.83-1.89.85-3.87,1.28-5.94,1.32-1.8-.47-3.66-.81-5.03-2.25Z"/>
      <path class="cls-56" d="m122.75,90.79c-2.43,1.22-2.9-2.38-4.98-2.02-1.08-.61-2.81.37-3.42-1.4-.06-.87.66-1.05,1.21-1.38,2.32.97,4.64,1.94,6.96,2.9.07.63.15,1.26.22,1.89Z"/>
      <path class="cls-15" d="m108.52,35.94c.07-1.42.16-2.89,1.15-3.98,1.48-1.62,1.67-.19,1.93.93-.06,4.12-.09,4.15-3.08,3.05Z"/>
      <path class="cls-16" d="m114.52,31.94c-.18-.76-.76-1.88-.45-2.23,1.12-1.3,2.31.41,3.54.22.12,1.15.29,2.38-.83,3.11-1.22.8-1.65-.42-2.25-1.1Z"/>
      <path class="cls-79" d="m47.67,28.91c-2.89,3.14-5.99,6.12-8.59,9.48-1.48,1.91-4,4.14-2.26,6.94,2.26,3.63,4.53-.53,6.86-.43-4.62,4.42-9.19,8.89-13.9,13.22-1.01.93-2.36,2.05-3.98,1.14-1.78-1.01-2.26-2.71-2.11-4.67.36-4.74,3.8-7.9,5.99-11.7,5-4.17,10.01-8.32,14.99-12.52.9-.76,1.74-1.49,2.99-1.47Z"/>
      <path class="cls-22" d="m111.61,64.86c-.72.34-1.56,1.11-2.13.95-6-1.72-7.74,3.52-10.72,6.57-1.43,1.46,2.22,7.99,4.78,8.38,2.13.33,4,.5,4.04,3.23-1.83,1.52-3.77.15-5.65.21-1.77.06-3.62-.3-5.13,1.02-.68.62-1.4,1.21-1.77,2.11-.12.29-.34.67-.21.88.55.91.6-.53,1.06-.27,1.97-.43,3.91-.57,5.69.64.36.49.3.93-.16,1.31-1.16.03-2.31-.06-2.7,1.5-1.38,5.42-5.66,6.22-10.32,6.35-1.66-4.19-1.39-8.75-2.45-13.05.12-.83.42-1.64,1.04-2.18,3.09-2.68,3.75-5.58,1.08-8.97-.5-.63-.41-1.57-.34-2.4.15-1.16.63-2.22,1.06-3.28.41-1.03.64-2.1.59-3.22.11-1.55-.88-3.08-.08-4.64,1.14-.72,2.27-1.44,3.41-2.15,2.23-.16,3.06,2.14,4.85,2.74,2.85,2.04,5.94,3.24,9.53,3.02,1.6-.1,3.28-.08,4.53,1.26Z"/>
      <path class="cls-96" d="m86.44,83.93c1.98,4.42,2.7,9.01,1.94,13.82-.32.34-.64.68-.95,1.03-2.33.38-3.1-1.46-4.11-2.92-6.41-9.21-10.36-10.4-20.39-6.06-1.55.67-3.04,1.46-4.55-.01-.2-1.02-.41-2.03.27-2.97.01-.33,0-.66-.05-.99-.18-3.09,2.45-4.26,4.12-6.1,4.66-3.27,9.84-3.68,15.27-2.85,3.79,1.18,7.23,2.79,8.46,7.05Z"/>
      <path class="cls-42" d="m58.72,89.82c1.37.1,2.48-.39,3.68-1.09,8.91-5.17,16.48-3.08,21.62,5.92.91,1.59,1.72,3.2,3.41,4.12-.35,1.54-1.21,2.65-2.73,3.19-.39-.32-.68-.7-.9-1.15-.69-2.3-2.48-3.28-4.59-4.04-5.71-2.08-11.35-4.34-17.53-4.77-1.24-.08-3.23.23-2.97-2.17Z"/>
      <path class="cls-35" d="m101.4,89.9c.09-.26.13-.53.11-.8.12-1.49,1.28-2.21,2.25-3.06.66-.57,1.26-1.22,2.12-1.5,1.77.34,3.17,1.59,4.91,2,2.19.68,4.31,1.47,5.86,3.27.59,1.38,5.46.59,2.03,4.01-3.14-1.77-6.56-1.94-10.04-1.8-.98-3.17-3-2.24-5.02-1.26-.9.12-1.66-.13-2.23-.86Z"/>
      <path class="cls-96" d="m84.65,100.83c.01.38.03.75.04,1.13-.65,1.32-2.43,1.98-2.25,3.79-2.29-1.92-4.66-.21-6.99-.12-1.99.07-3.85-.35-5.71-.95-.16-.96.48-1.37,1.2-1.7,2.18-.67,4.43-.32,6.65-.46,1.65.01,3.03-.75,4.43-1.5.85-.34,1.7-.75,2.62-.19Z"/>
      <path class="cls-80" d="m103.63,90.76c1.3-1.2,1.83-3.89,4.31-2.89,1.96.79,1.56,2.57.71,4.15.04.29.03.59,0,.88-1.67-.71-3.34-1.42-5.02-2.14Z"/>
      <path class="cls-25" d="m119.65,124.84c-1.29-1.62-2.58-3.25-4.05-5.09,6.53,1.22,12.83,1.84,17.92,6-4.8,2.34-9.29.06-13.87-.9Z"/>
      <path class="cls-100" d="m104.29,114.65c-.24.05-.42.17-.55.37-4.22,2.73-5.75,2.21-6.05-2.07,3.44-4.26,4.93-.93,6.6,1.69Z"/>
      <path class="cls-97" d="m97.69,112.96c.69,4.57,3.59,2.67,6.04,2.06-.23,2.75-2.16,3.05-4.26,2.77-2.23-.3-4.28-.98-3.78-3.97.67-.29,1.33-.58,2-.87Z"/>
      <path class="cls-78" d="m84.65,100.83c-.69.31-1.39.63-2.08.94-3.32.18-5.84-1.97-8.77-2.92-3.45-1.12-6.89-3.52-10.7-.96-.01.42-.16.78-.43,1.09-4.38-2.11-5.97-6.93-4.03-12.16.02,1,.05,2,.07,3.01,7.54,1.33,14.96,3.12,22.07,6.04,2.22.91,4.98,1.45,3.87,4.97Z"/>
      <path class="cls-65" d="m45.77,76.74c2.46-.66,3.79-2.21,3.81-4.81.2-.12.4-.24.6-.36.48.07.85.32,1.1.73.31.64.45,1.31.51,2.01-.58,2.75,2.51,4.3,2.27,6.94-.58.99-1.31,1.39-2.34.6-2.89.16-3.55,2.79-5.03,4.52-.64.18-1.28.17-1.8-.28-.53-.46-.84-1.02-.37-1.71-.94.58.01,1.35-.19,2.01-.14.47-.34.88-.7,1.21-2.02-2.91-1.11-5.79.09-8.66.44-.96.77-2.03,2.06-2.21Z"/>
      <path class="cls-82" d="m57.68,108.83c-7.11-3.17-13.19-8.09-20.02-11.73-.64-.45-1.29-.89-1.93-1.34.39-.37.78-.74,1.17-1.1,8.68,2.11,14.98,8.08,21.7,13.37-.3.27-.61.53-.91.8Z"/>
      <path class="cls-77" d="m51.73,81.86c.66-.36,1.32-.73,1.97-1.09.31-.72.74-1.34,1.45-1.72,1.49-.64,2.91-1.75,4.53-1.65,1.93.12,4.13.48,2.99,3.46-1.36,1.66-2.72,3.31-4.08,4.97-2.98-.12-6.11,0-6.86-3.97Z"/>
      <path class="cls-30" d="m62.67,98.98c0-.38,0-.76,0-1.14,5.27,1.15,10.11,3.77,15.47,4.63.47.08.52.76.46,1.27-2.63,0-5.25.01-7.88.02-2.9.14-5.03-1.66-7.37-2.95l-.68-1.85Z"/>
      <path class="cls-52" d="m43.63,87.61v-4.38c1.4,1.21,1.48,2.98,3.07,3.15-.14,1.04.4,2.48-.77,2.95-1.24.5-1.9-.63-2.3-1.72Z"/>
      <path class="cls-13" d="m45.77,76.74c-.68.74-1.37,1.47-2.06,2.21-.73-1.31-2.65-1.45-3.04-3.09,1.95-1.17,3.75-1.48,5.1.88Z"/>
      <path class="cls-39" d="m63.35,100.83c2.71.34,5,1.75,7.37,2.95-.32.3-.64.61-.96.91-2.79-.2-4.86-1.6-6.4-3.86Z"/>
      <path class="cls-29" d="m96.33,61.02c-1.89-.28-2.4-2.14-3.64-3.17-.3-1.35-.59-2.7-.89-4.06,3.09-2.94,6.71-1,9.84-.55,3.67.54,7.15,2.52,10.66,3.99,3.92,1.63,4.11,3.55.25,5.58-4.06-.12-6.88-3.54-10.77-4.06-1.7-.23-3.92-1.95-4.74,1.27-.04.47-.29.79-.71.99Z"/>
      <path class="cls-38" d="m65.67,63.83c-.62-2.8,1.09-4.45,2.95-6.04,1.05-.64,2.1-1.28,3.15-1.92,2.87-1.19,5.73-2.27,7.96,1.12-.09,2.22-2.53,2.11-3.46,3.51-.99.95-1.62,2.16-2.33,3.3-1.51,2.22-3.68,2.43-6.06,2.01-1.06-.31-1.9-.85-2.21-1.99Z"/>
      <path class="cls-87" d="m75.48,59.81c.83-1.83,3.04-1.56,4.25-2.81,3.72-.7,6.2,2.54,9.55,3,.48,1.6,1.8,3,1.18,4.87-2.6.25-3.12-2.87-5.33-3.25-2.2-.96-4.42-.09-6.63-.04-1.26-.18-2.37-.59-3.03-1.78Z"/>
      <path class="cls-63" d="m50.65,71.84c-.35.03-.71.06-1.06.1-1.54-1.48-4.56-1.18-4.91-4.09,2.82-3.54,4.44,2.02,6.94.92.88,1.4.09,2.28-.96,3.07Z"/>
      <path class="cls-65" d="m50.65,71.84c.32-1.02.64-2.05.96-3.07.69-.68,1.37-1.35,2.06-2.03.93-.3,1.86-.6,2.78-.89.03,3.85-2.2,5.57-5.72,6.07l-.08-.07Z"/>
      <path class="cls-70" d="m65.67,63.83c.56.38,1.11.76,1.67,1.14.68,1.84-.95,2.32-1.95,2.72-4.03,1.58-6.99,4.16-8.67,8.19-.32.77-1.06,1.23-1.92,1.39-1.78-.2-3.45-.54-3.58-2.82.83-4.37,5.68-5.7,7.22-9.53,1.76-1.98,4.15-.73,6.2-1.19.34.03.68.07,1.02.1Z"/>
      <path class="cls-76" d="m58.44,64.92c.8.04,1.61.08,3.31.16-4.49,2.46-7.53,5.33-9.99,8.81-.28.46-.57.45-.87,0-.05-.66-.1-1.32-.16-1.99,2.22-1.73,4.18-3.71,5.72-6.07.66-.31,1.32-.61,1.98-.92Z"/>
      <path class="cls-47" d="m110.79,86.98c-1.75-.63-3.5-1.26-5.24-1.89-3.56.11-7.12,1.06-10.66-.09,3.95-3.94,8.37-1.92,12.7-1.01,2.16,2.64,5.48.7,7.98,2-.35.33-.71.67-1.06,1-1.24.91-2.48.43-3.71-.02Z"/>
      <path class="cls-58" d="m111.61,64.86c-5.5.35-11.05.88-15.28-3.84,0,0,.3-.14.3-.14,1.38-1.19,2.83-.52,4.1.08,3.49,1.62,7.28,1.38,10.92,1.99.38.34.76.67,1.14,1.01-.39.3-.79.6-1.18.9Z"/>
      <path class="cls-86" d="m111.66,62.95c-5.46,2.57-10.13-.56-15.02-2.07-.19-1.25-2.29-1.92-1.37-3.36.8-1.25,2.44-.69,3.66-.6,5.2.39,9.43,3.11,13.62,5.89-.3.04-.6.08-.9.14Z"/>
      <path class="cls-61" d="m121.74,76.8c-1.66-.5-3.57-.56-3.62-2.4-.03-1.2,1.48-1.61,2.68-1.66,1.51-.06,3.33-.06,3.58,1.77.24,1.81-1.98,1.33-2.65,2.29Z"/>
      <path class="cls-5" d="m110.79,86.98c1.24,0,2.48.01,3.71.02,1.09.59,2.18,1.18,3.26,1.78-.37.34-.74.69-1.11,1.03-1.89-1.08-4.4-.86-5.87-2.82Z"/>
      <path class="cls-68" d="m86.44,83.93c-2.26-2.45-4.77-4.58-7.8-6.03-1.26-1.97-.35-3.63.74-5.27,2.96-1.16,5.99-2.01,9.22-1.87.1.81,0,1.72.34,2.42q3.22,6.49-2.51,10.75Z"/>
      <path class="cls-90" d="m85.69,60.83c2.78-.05,2.76,3.19,4.77,4.05.15,1.09.67,2.28-.73,3-4.73,5.23-8.34,5.47-15.97,1.09-2.03-1.88-.66-3.96-.36-5.98.28-1.33.76-2.52,2.07-3.17,1.06.36,2.12.71,3.18,1.07.51.71-.48,1.68.4,2.34.03.41,0,.81-.07,1.21,1.69,3.45,3.77,2.8,5.97.58.09-1.05-.24-2.1-.01-3.15.14-.43.39-.77.74-1.04Z"/>
      <path class="cls-67" d="m74.53,68.93c2.08-.98,3,1.3,4.66,1.66,4.03.88,7.44-.25,10.55-2.72-.38.96-.75,1.93-1.13,2.89-2.72,1.79-5.74,2.37-8.94,2.23-1.14.58-2.08-.05-3.05-.52-.92-.6-1.71-1.33-2.23-2.32-.14-.43-.1-.84.14-1.23Z"/>
      <path class="cls-93" d="m104.68,86.85c-1.06.75-2.11,1.5-3.17,2.25-2.32-.03-4.64-.07-6.95-.1-1.06-3.39,1.91-3.2,3.63-3.9,2.5-1.02,4.98-1.23,6.49,1.75Z"/>
      <path class="cls-6" d="m104.68,86.85c-4.05-2.47-7.55-2.37-10.12,2.15-1.38-1.21-1.32-1.91.33-4,3.56-1.03,7.12-1.84,10.66.09.04.75-.17,1.38-.87,1.76Z"/>
      <path class="cls-23" d="m74.53,68.93c.04.31.07.63.08.94.14,1.26.45,2.32,2.1,1.93.99.4,1.97.79,2.96,1.19-.34,1.64-.69,3.27-1.03,4.91-5.62-.6-11.02-.06-15.97,2.96-.7-2.27-1.83-3.68-4.19-1.75-1.19.97-2.49.65-3.77.72-.89-.94-.87-1.89-.06-2.87,2.14-6.2,7.34-9.17,12.68-11.98,2.16-.25,4.65.49,6.07-2,.5,1.96-.7,4.24,1.12,5.95Z"/>
      <path class="cls-26" d="m78.6,103.75c-5.58-1.24-11.33-2.02-15.93-5.91-.57-.55-1.67-1.16-1.61-1.62.22-1.65,1.97-1.15,2.73-1.02,4.49.77,9.1,1.21,13.13,3.73,1.78,1.11,3.76,1.91,5.65,2.85-1.31.7-2.19,2.25-3.97,1.98Z"/>
      <path class="cls-73" d="m54.65,76.96c.02.96.04,1.91.06,2.87-.33.32-.67.63-1,.95-2.11-1.81-4.02-3.71-2.82-6.88.29-.01.58-.02.87,0-.26,2.18,2.33,1.68,2.9,3.07Z"/>
      <path class="cls-8" d="m85.69,60.83c-.06.48-.12.97-.18,1.45-2.2,1.11-4.47,1.41-6.84.62-1.15-.67-.07-1.34,0-2.01,2.34-1.15,4.67-1.85,7.03-.05Z"/>
      <path class="cls-81" d="m78.67,62.89c2.16-1.54,4.48-1.34,6.84-.62.37.85.73,1.69,1.1,2.54-3.57,3.86-6.93,3.47-8.33-.98.13-.31.26-.63.38-.94Z"/>
      <path class="cls-87" d="m78.28,63.83c2.3,4.37,5.2,3.66,8.33.98-1.87,3.7-7.17,4.32-9.3,1.08-.78-1.18-.22-1.79.97-2.06Z"/>
      <path class="cls-18" d="m76.71,71.8c-.15.98-.3,2.28-1.68,1.59-1.61-.81-1.93-2.15-.42-3.52.7.64,1.4,1.29,2.1,1.93Z"/>
    </g>
  </g>
</svg>